<svg width="512" height="512" viewBox="0 0 512 512" fill="none" xmlns="http://www.w3.org/2000/svg">
<g clip-path="url(#clip0_1_2)">
<circle cx="256" cy="256" r="256" fill="#04E200"/>
<path d="M200.371 190.654L126.28 264.744C119.69 271.336 119.69 282.019 126.28 288.611L197.875 360.205C204.465 366.794 215.15 366.794 221.74 360.205L329.131 252.812L234.122 157.802L200.371 190.654Z" fill="#1A1A1A"/>
<path fill-rule="evenodd" clip-rule="evenodd" d="M191.934 66.8138C213.206 66.8138 230.801 85.4377 233.701 109.653L368.377 244.327C373.063 249.013 373.063 256.611 368.377 261.297L245.605 384.069C225.834 403.84 193.78 403.84 174.01 384.069L102.416 312.475C82.6453 292.705 82.6453 260.65 102.416 240.88L149.746 193.549V116.717C149.746 89.1561 168.634 66.8138 191.934 66.8138ZM200.371 116.717V142.924L183.496 159.799V116.717C183.496 111.205 187.274 106.736 191.934 106.736C196.594 106.736 200.371 111.205 200.371 116.717ZM200.371 199.5V190.654L126.28 264.744C119.69 271.336 119.69 282.019 126.28 288.611L197.875 360.205C204.465 366.794 215.15 366.794 221.74 360.205L320.646 261.297C325.332 256.611 325.332 249.013 320.646 244.327L234.122 157.802L234.083 190.654C234.083 190.962 234.083 196.056 234.083 201.819C234.083 211.135 226.531 218.689 217.215 218.689V218.689C207.831 218.689 200.252 211.03 200.349 201.647L200.371 199.5Z" fill="black"/>
<path d="M337.989 317.764C318.218 337.535 318.218 369.589 337.989 389.358C357.76 409.129 389.814 409.129 409.584 389.358C429.354 369.589 429.354 337.535 409.584 317.764L378.736 286.917C376.002 284.183 371.57 284.183 368.836 286.917L337.989 317.764Z" fill="black"/>
</g>
<defs>
<clipPath id="clip0_1_2">
<rect width="512" height="512" fill="white"/>
</clipPath>
</defs>
</svg>
